<svg width="21" height="23" viewBox="0 0 21 23" fill="none" xmlns="http://www.w3.org/2000/svg">
<path d="M11.2489 6.97537C10.2528 6.97537 9.49109 7.73709 9.49109 8.73318C9.49109 9.72928 10.2528 10.5496 11.2489 10.5496C12.245 10.5496 13.0653 9.72928 13.0653 8.73318C13.0653 7.73709 12.245 6.97537 11.2489 6.97537ZM11.5419 0.00271444C6.73718 -0.114473 2.75281 3.57693 2.51843 8.32303L0.116087 11.4871C-0.176881 11.8972 0.116087 12.4832 0.643431 12.4832H2.51843V16.2332C2.51843 17.6394 3.63171 18.7527 5.03796 18.7527H6.26843V21.2722C6.26843 21.9168 6.85437 22.5027 7.4989 22.5027H13.7684C14.4716 22.5027 14.9989 21.9168 14.9989 21.2722V16.6433C18.0458 15.1785 20.1551 12.073 20.038 8.44021C19.8622 3.9285 16.0536 0.119902 11.5419 0.00271444ZM14.9989 8.73318C14.9989 8.90896 14.9989 9.08475 14.9989 9.26053L16.0536 10.0808C16.1122 10.1394 16.1708 10.2566 16.1122 10.3738L15.1161 12.1316C15.0575 12.2488 14.8817 12.2488 14.7645 12.2488L13.5341 11.7215C13.2997 11.9558 13.0067 12.073 12.7137 12.1902L12.538 13.5379C12.4794 13.6551 12.4208 13.7722 12.245 13.7722H10.2528C10.1356 13.7722 10.0184 13.6551 10.0184 13.5379L9.84265 12.1902C9.49109 12.073 9.25671 11.9558 8.96374 11.7215L7.73327 12.2488C7.61609 12.2488 7.4989 12.2488 7.44031 12.1316L6.44421 10.3738C6.38562 10.2566 6.38562 10.1394 6.50281 10.0808L7.55749 9.26053C7.55749 9.08475 7.4989 8.90896 7.4989 8.73318C7.4989 8.616 7.55749 8.44021 7.55749 8.26443L6.50281 7.44412C6.38562 7.38553 6.38562 7.26834 6.44421 7.09256L7.44031 5.39334C7.4989 5.27615 7.61609 5.21756 7.73327 5.27615L9.02234 5.8035C9.25671 5.56912 9.54968 5.39334 9.84265 5.27615L10.0184 3.98709C10.0184 3.81131 10.1356 3.75271 10.2528 3.75271H12.245C12.4208 3.75271 12.4794 3.81131 12.538 3.98709L12.7137 5.27615C13.0067 5.39334 13.2997 5.56912 13.5341 5.8035L14.7645 5.27615C14.8817 5.21756 15.0575 5.27615 15.1161 5.39334L16.1122 7.09256C16.1708 7.20975 16.1122 7.38553 16.0536 7.44412L14.9403 8.26443C14.9989 8.44021 14.9989 8.5574 14.9989 8.73318Z" fill="#5F7B48"/>
</svg>
