<svg width="21" height="20" viewBox="0 0 21 20" fill="none" xmlns="http://www.w3.org/2000/svg">
<path d="M2.01562 9C0.9375 9 0 9.89062 0 10.9688V18C0 19.0781 0.9375 19.9688 2.01562 19.9688C3.09375 19.9688 4.03125 19.0781 4.03125 18V10.9688C4.03125 9.89062 3.09375 9 2.01562 9ZM9 3.28125C9 1.45312 10.4531 0 12.3281 0C13.3594 0 14.3438 0.46875 15 1.21875C15.6562 0.46875 16.6875 0 17.7188 0C19.5469 0 21 1.45312 21 3.28125C21 5.39062 18.5156 7.78125 15.7031 10.3594C15.3281 10.7344 14.7188 10.7344 14.3438 10.3594C11.5312 7.78125 9 5.39062 9 3.28125ZM18.9844 15H12.1875C12.0469 15 11.9531 14.9531 11.8594 14.9062L10.3594 14.4375C10.125 14.3438 9.98438 14.0625 10.0781 13.7812C10.1719 13.5469 10.4531 13.4062 10.7344 13.5L11.8125 13.9219C11.9531 13.9688 12.0938 13.9688 12.1875 13.9688H14.8125C15.4688 13.9688 15.9844 13.4531 15.9844 12.7969C15.9844 12.3281 15.7031 11.8594 15.2344 11.6719L8.29688 9.09375C8.10938 9.04688 7.875 9 7.59375 9H6V18L12.375 19.8281C12.7969 19.9219 13.2188 19.9219 13.6406 19.7812L21 16.9688C21 15.8906 20.1094 15 18.9844 15Z" fill="white"/>
</svg>
