<svg width="50" height="50" viewBox="0 0 50 50" fill="none" xmlns="http://www.w3.org/2000/svg">
<path d="M5 50C3.625 50 2.44792 49.5104 1.46875 48.5312C0.489583 47.5521 0 46.375 0 45V15C0 13.625 0.489583 12.4479 1.46875 11.4688C2.44792 10.4896 3.625 10 5 10H15V5C15 3.625 15.4896 2.44792 16.4688 1.46875C17.4479 0.489583 18.625 0 20 0H30C31.375 0 32.5521 0.489583 33.5312 1.46875C34.5104 2.44792 35 3.625 35 5V10H45C46.375 10 47.5521 10.4896 48.5312 11.4688C49.5104 12.4479 50 13.625 50 15V45C50 46.375 49.5104 47.5521 48.5312 48.5312C47.5521 49.5104 46.375 50 45 50H5ZM5 45H45V15H5V45ZM20 10H30V5H20V10ZM5 45V15V45ZM22.5 32.5V40H27.5V32.5H35V27.5H27.5V20H22.5V27.5H15V32.5H22.5Z" fill="#718439"/>
</svg>
