<svg width="23" height="28" viewBox="0 0 23 28" fill="none" xmlns="http://www.w3.org/2000/svg">
<path d="M10.2539 0.219727L1.46484 4.08691C0.585938 4.49707 0 5.43457 0 6.37207V12.29C0 19.2041 4.80469 25.708 11.25 27.29C17.6953 25.708 22.5 19.2041 22.5 12.29V6.37207C22.5 5.43457 21.9141 4.49707 21.0352 4.08691L12.2461 0.219727C11.6016 -0.0732422 10.8984 -0.0732422 10.2539 0.219727ZM7.85156 18.9111L4.62891 15.6299C4.16016 15.1611 4.16016 14.3994 4.62891 13.8721C5.09766 13.4033 5.91797 13.4033 6.38672 13.8721L8.73047 16.2158L16.1133 8.8916C16.582 8.42285 17.4023 8.42285 17.8711 8.8916C18.3398 9.36035 18.3398 10.1807 17.8711 10.6494L9.60938 18.9111C9.14062 19.3799 8.37891 19.3799 7.85156 18.9111Z" fill="#A54422"/>
</svg>
