<svg width="30" height="29" viewBox="0 0 30 29" fill="none" xmlns="http://www.w3.org/2000/svg">
<path d="M0 9.77344C0 7.66406 1.6875 5.97656 3.72656 5.97656C5.76562 5.97656 7.45312 7.66406 7.45312 9.77344C7.45312 11.8125 5.76562 13.5 3.72656 13.5C1.6875 13.5 0 11.8125 0 9.77344ZM6.75 3.72656C6.75 1.6875 8.4375 0 10.4766 0C12.5156 0 14.2031 1.6875 14.2031 3.72656C14.2031 5.83594 12.5156 7.52344 10.4766 7.52344C8.4375 7.52344 6.75 5.83594 6.75 3.72656ZM15.75 3.72656C15.75 1.6875 17.4375 0 19.4766 0C21.5156 0 23.2031 1.6875 23.2031 3.72656C23.2031 5.83594 21.5156 7.52344 19.4766 7.52344C17.4375 7.52344 15.75 5.83594 15.75 3.72656ZM22.5 9.77344C22.5 7.66406 24.1875 5.97656 26.2266 5.97656C28.2656 5.97656 29.9531 7.66406 29.9531 9.77344C29.9531 11.8125 28.2656 13.5 26.2266 13.5C24.1875 13.5 22.5 11.8125 22.5 9.77344ZM22.9922 17.7891C21.6562 16.2422 20.6016 14.9766 19.2656 13.4297C18.5625 12.5859 17.7188 11.8125 16.6641 11.4609C16.4531 11.3906 16.3125 11.3203 16.1719 11.3203C15.75 11.25 15.3984 11.25 14.9766 11.25C14.5547 11.25 14.2031 11.25 13.7812 11.3203C13.6406 11.3203 13.4297 11.3906 13.2891 11.4609C12.2344 11.8125 11.3906 12.6562 10.6875 13.4297C9.35156 14.9766 8.29688 16.2422 6.96094 17.7891C4.99219 19.7578 2.60156 21.9375 3.02344 24.9609C3.44531 26.5078 4.57031 28.0547 6.53906 28.4766C7.59375 28.6875 11.1094 27.8438 14.8359 27.8438H15.1172C18.8438 27.8438 22.2891 28.6875 23.4141 28.4766C25.3828 28.0547 26.4375 26.5078 26.9297 24.9609C27.3516 21.9375 24.9609 19.7578 22.9922 17.7891Z" fill="#E0B648"/>
</svg>
